# xmcd
#
# Track frame offsets: 
#        150
#        6893
#        25198
#        46165
#        63796
#        81029
#        97844
#        116527
#        133325
#        151607
#        168440
#        188615
#        192985
#        206487
#        224137
#        238201
#
# Disc length: 3398 seconds
#
# Revision: 0
# Processed by: cddbd v1.5.2PL0 Copyright (c) Steve Scherf et al.
# Submitted via: ExactAudioCopyFreeDBPlugin 1.0
#
DISCID=d10d4410
DTITLE=Monica - New Life (Deluxe Edition)
DYEAR=2012
DGENRE=R&B
TTITLE0=New Life (Intro)
TTITLE1=It All Belongs To Me (feat. Brandy)
TTITLE2=Daddy's Good Girl
TTITLE3=Man Who Has Everything
TTITLE4=Big Mistake
TTITLE5=Take A Chance (feat. Wale)
TTITLE6=Without You
TTITLE7=Until It's Gone
TTITLE8=Amazing
TTITLE9=Cry
TTITLE10=Time To Move On
TTITLE11=New Life (Outro)
TTITLE12=Breathe
TTITLE13=In 3D
TTITLE14=Catch Me
TTITLE15=Anything (To Find You) (feat. Rick Ross)
EXTD=
EXTT0=
EXTT1=
EXTT2=
EXTT3=
EXTT4=
EXTT5=
EXTT6=
EXTT7=
EXTT8=
EXTT9=
EXTT10=
EXTT11=
EXTT12=
EXTT13=
EXTT14=
EXTT15=
PLAYORDER=
